<svg width="313" height="66" viewBox="0 0 313 66" fill="none" xmlns="http://www.w3.org/2000/svg">
<path d="M0 13C0 5.8203 5.8203 0 13 0H35V35H0V13Z" fill="#2BAE66"/>
<path d="M18 18H53V40C53 47.1797 47.1797 53 40 53H18V18Z" fill="#FFBE00"/>
<path d="M90.112 9.4H81.088V35.512C81.088 39.496 79.12 41.08 76.528 41.08C74.224 41.08 71.392 38.392 71.392 38.392L68.512 45.928C68.512 45.928 72.112 49.72 77.776 49.72C85.696 49.72 90.112 45.592 90.112 37.816V9.4ZM93.604 36.712C93.604 44.296 99.556 49.72 108.436 49.72C116.932 49.72 123.124 44.296 123.124 36.712C123.124 29.032 116.596 23.656 108.436 23.656C100.132 23.656 93.604 29.032 93.604 36.712ZM102.628 36.712C102.628 33.304 105.172 30.904 108.388 30.904C111.556 30.904 114.1 33.304 114.1 36.712C114.1 40.072 111.7 42.472 108.388 42.472C104.932 42.472 102.628 40.072 102.628 36.712ZM155.914 36.712C155.914 29.512 150.874 23.656 143.674 23.656C140.362 23.656 137.626 24.76 135.61 26.728V7.72H127.114V49H135.514V46.216H135.61C137.434 48.232 140.314 49.72 143.674 49.72C150.874 49.72 155.914 43.912 155.914 36.712ZM146.89 36.712C146.89 40.072 144.586 42.472 141.13 42.472C137.818 42.472 135.418 40.072 135.418 36.712C135.418 33.304 137.962 30.904 141.13 30.904C144.346 30.904 146.89 33.304 146.89 36.712ZM168.904 33.112H181.672V49H190.696V9.4H181.672V25.192H168.904V9.4H159.88V49H168.904V33.112ZM204.459 24.376H195.963V38.152C195.963 46.408 200.091 49.72 209.307 49.72C218.523 49.72 222.651 46.408 222.651 38.152V24.376H214.155V36.088C214.155 40.936 212.859 42.808 209.307 42.808C205.755 42.808 204.459 40.936 204.459 36.088V24.376ZM227.943 49H236.439V35.08C236.439 32.632 238.935 30.28 241.479 30.28C244.215 30.28 245.895 32.632 245.895 35.08V49H254.391V32.776C254.391 25.912 248.103 23.656 243.591 23.656C240.903 23.656 238.455 25.048 236.535 26.968H236.439V24.376H227.943V49ZM272.781 30.616C275.325 30.616 276.909 31.768 276.909 31.768L279.789 25.96C279.789 25.96 277.005 23.656 271.533 23.656C264.381 23.656 257.901 29.512 257.901 36.76C257.901 43.96 264.429 49.72 271.533 49.72C277.005 49.72 279.789 47.512 279.789 47.512L276.909 41.608C276.909 41.608 275.325 42.76 272.781 42.76C269.565 42.76 266.925 40.072 266.925 36.664C266.925 33.304 269.565 30.616 272.781 30.616ZM283.255 49H291.751V35.08C291.751 32.632 294.247 30.28 296.791 30.28C299.527 30.28 301.207 32.632 301.207 35.08V49H309.703V32.776C309.703 25.912 303.415 23.656 298.903 23.656C296.215 23.656 293.767 25.048 291.847 26.968H291.751V7.72H283.255V49Z" fill="#2BAE66"/>
</svg>
